<svg id="Capa_1" enable-background="new 0 0 512 512" height="512" viewBox="0 0 512 512" width="512" xmlns="http://www.w3.org/2000/svg"><path d="m376.769 205.451h-241.538c-7.185 0-13.01-5.825-13.01-13.01 0-7.185 5.825-13.01 13.01-13.01h241.538c7.185 0 13.01 5.825 13.01 13.01 0 7.185-5.825 13.01-13.01 13.01z" fill="#e6e2e6"/><path d="m376.769 179.43h-18.581c7.185 0 13.01 5.825 13.01 13.01s-5.825 13.01-13.01 13.01h18.581c7.185 0 13.01-5.825 13.01-13.01s-5.825-13.01-13.01-13.01z" fill="#d8d1d7"/><path d="m207.847 329.218c-22.334-15.346-36.984-41.067-36.984-70.213v-53.553h-25.538s-21.685 64.598-23.039 166.949c35.55-21.74 85.561-43.183 85.561-43.183z" fill="#b2b2b2"/><path d="m170.864 259.004v-53.553h-20.031c.358 30.837 4.225 79.92 23.026 139.384 19.204-9.278 33.987-15.617 33.988-15.617-22.334-15.346-36.983-41.067-36.983-70.214z" fill="#a0a0a0"/><path d="m304.152 329.218c22.334-15.346 36.983-41.067 36.983-70.213v-53.553h25.539s21.685 64.598 23.039 166.949c-35.549-21.74-85.56-43.183-85.561-43.183z" fill="#b2b2b2"/><path d="m389.713 372.4c-1.353-102.352-23.039-166.949-23.039-166.949h-18.581s20.161 60.072 22.815 156.136c6.472 3.529 12.842 7.167 18.805 10.813z" fill="#a0a0a0"/><path d="m418.948 394.411c-23.681-26.131-114.796-65.194-114.796-65.194-13.696 9.411-30.279 14.923-48.153 14.923-17.873 0-34.457-5.512-48.152-14.923 0 0-91.115 39.063-114.796 65.194-23.68 26.131-54.711 117.589-54.711 117.589h217.66 217.66s-31.031-91.458-54.712-117.589z" fill="#a67eff"/><path d="m400.368 403.702c19.061 21.033 42.879 84.378 51.449 108.298h21.843s-31.03-91.458-54.711-117.589-114.796-65.193-114.796-65.193c-5.593 3.843-11.675 7.023-18.123 9.456 25.597 11.612 95.598 44.349 114.338 65.028z" fill="#8f73f4"/><path d="m256 344.14c-47.02 0-85.136-38.117-85.136-85.136v-53.553h170.272v53.553c0 47.02-38.116 85.136-85.136 85.136z" fill="#ffc89f"/><path d="m322.555 205.451v53.553c0 43.879-33.198 79.992-75.846 84.622 3.052.331 6.149.514 9.29.514 47.019 0 85.136-38.117 85.136-85.136v-53.553z" fill="#f7b081"/><path d="m164.199 179.43s7.272-77.323 72.457-144.177c60.82-62.378 64.155-34.049 60.15 23.451-3.425 49.167 49.542 68.219 60.441 120.726z" fill="#a67eff"/><path d="m296.806 58.705c2.938-42.186 1.924-68.668-22.842-55.149 6.397 7.898 6.128 28.353 4.261 55.149-3.425 49.167 49.542 68.219 60.441 120.725h18.581c-10.899-52.506-63.866-71.558-60.441-120.725z" fill="#8f73f4"/><path d="m256 305.918c66.626 40.629 87.792-8.034 87.792-8.034-56.051 0-87.792-26.573-87.792-26.573s-31.741 26.573-87.792 26.573c0 0 21.166 48.663 87.792 8.034z" fill="#e6e2e6"/><path d="m256 305.918c-33.261 20.282-55.191 18.311-68.815 11.252 4.019 30.811 18.364 94.607 68.815 112.325 50.451-17.718 64.796-81.515 68.815-112.325-13.624 7.06-35.554 9.031-68.815-11.252z" fill="#e6e2e6"/><path d="m256 305.918c-33.261 20.282-55.191 18.311-68.815 11.252.75 5.752 1.861 12.654 3.499 20.191 13.776 5.62 34.764 5.769 65.316-12.862 30.553 18.631 51.54 18.481 65.316 12.862 1.638-7.537 2.749-14.439 3.499-20.191-13.624 7.06-35.554 9.031-68.815-11.252z" fill="#d8d1d7"/><path d="m190.598 336.942c-17.754 8.171-45.9 21.753-68.311 35.458s37.048 34.158 107.03 41.079c-22.482-20.366-33.415-51.912-38.719-76.537z" fill="#825fff"/><path d="m173.859 344.835c5.524 21.85 15.507 47.293 33.505 65.422 6.92 1.346 14.223 2.457 21.952 3.222-22.481-20.366-33.414-51.912-38.718-76.537-4.9 2.255-10.594 4.924-16.739 7.893z" fill="#6b54dd"/><path d="m321.402 336.942c17.754 8.171 45.901 21.753 68.311 35.458s-37.048 34.158-107.03 41.079c22.482-20.366 33.415-51.912 38.719-76.537z" fill="#825fff"/><g fill="#6b54dd"><path d="m373.954 383.784c10.423-6.473 15.759-11.384 15.759-11.384-22.411-13.704-50.557-27.287-68.311-35.458-1.122 5.207-2.499 10.726-4.18 16.381 18.356 8.933 39.686 19.928 56.732 30.461z"/><path d="m129.963 512v-42.856c0-4.276-3.466-7.742-7.742-7.742s-7.742 3.466-7.742 7.742v42.856z"/><path d="m397.521 512v-42.856c0-4.276-3.466-7.742-7.742-7.742s-7.742 3.466-7.742 7.742v42.856z"/></g><path d="m214.637 266.339c6.621 0 12.008-5.387 12.008-12.008s-5.387-12.008-12.008-12.008-12.007 5.387-12.007 12.008 5.386 12.008 12.007 12.008z" fill="#686167"/><path d="m297.363 266.339c6.622 0 12.008-5.387 12.008-12.008s-5.386-12.008-12.008-12.008-12.008 5.387-12.008 12.008 5.386 12.008 12.008 12.008z" fill="#686167"/></svg>